<?xml version="1.0" encoding="UTF-8" standalone="no"?>
<svg
   xmlns:dc="http://purl.org/dc/elements/1.1/"
   xmlns:cc="http://creativecommons.org/ns#"
   xmlns:rdf="http://www.w3.org/1999/02/22-rdf-syntax-ns#"
   xmlns:svg="http://www.w3.org/2000/svg"
   xmlns="http://www.w3.org/2000/svg"
   xmlns:sodipodi="http://sodipodi.sourceforge.net/DTD/sodipodi-0.dtd"
   xmlns:inkscape="http://www.inkscape.org/namespaces/inkscape"
   viewBox="0 0 36 36"
   version="1.1"
   id="svg18"
   sodipodi:docname="Icon.svg"
   inkscape:version="0.92.3 (2405546, 2018-03-11)"
   inkscape:export-filename="Icon.png"
   inkscape:export-xdpi="1365.3334"
   inkscape:export-ydpi="1365.3334">
  <metadata
     id="metadata24">
    <rdf:RDF>
      <cc:Work
         rdf:about="">
        <dc:format>image/svg+xml</dc:format>
        <dc:type
           rdf:resource="http://purl.org/dc/dcmitype/StillImage" />
        <dc:title></dc:title>
      </cc:Work>
    </rdf:RDF>
  </metadata>
  <defs
     id="defs22" />
  <sodipodi:namedview
     pagecolor="#ffffff"
     bordercolor="#666666"
     borderopacity="1"
     objecttolerance="10"
     gridtolerance="10"
     guidetolerance="10"
     inkscape:pageopacity="0"
     inkscape:pageshadow="2"
     inkscape:window-width="2279"
     inkscape:window-height="1484"
     id="namedview20"
     showgrid="false"
     inkscape:zoom="13.111111"
     inkscape:cx="0.45824199"
     inkscape:cy="17.727355"
     inkscape:window-x="655"
     inkscape:window-y="202"
     inkscape:window-maximized="0"
     inkscape:current-layer="svg18" />
  <path
     fill="#FFCB4C"
     d="M36 18c0 9.941-8.059 18-18 18-9.94 0-18-8.059-18-18C0 8.06 8.06 0 18 0c9.941 0 18 8.06 18 18"
     id="path2" />
  <ellipse
     fill="#65471B"
     cx="12.176"
     cy="14.71"
     rx="2.647"
     ry="3.706"
     id="ellipse4" />
  <circle
     fill="#F4F7F9"
     cx="24.882"
     cy="14.294"
     r="6.882"
     id="circle6" />
  <path
     fill="#65471B"
     d="M14.825 9.946c-.322 0-.64-.146-.848-.423-.991-1.321-2.028-2.029-3.083-2.104-1.39-.095-2.523.947-2.734 1.158-.414.414-1.084.414-1.497 0-.414-.414-.414-1.084 0-1.497.457-.457 2.129-1.936 4.381-1.773 1.695.12 3.251 1.111 4.627 2.945.351.468.256 1.132-.211 1.482-.192.143-.415.212-.635.212z"
     id="path8" />
  <path
     fill="#292F33"
     d="M32.824 36c-.585 0-1.059-.474-1.059-1.059V14.824c0-.585.474-1.059 1.059-1.059s1.059.474 1.059 1.059v20.118c-.001.584-.474 1.058-1.059 1.058z"
     id="path10" />
  <path
     fill="#67757F"
     d="M32.824 12.706c-.054 0-.105.012-.158.016-.732-3.628-3.943-6.369-7.784-6.369-4.379 0-7.941 3.562-7.941 7.941s3.562 7.941 7.941 7.941c3.468 0 6.416-2.238 7.496-5.343.144.031.292.049.445.049 1.17 0 2.118-.948 2.118-2.118 0-1.169-.948-2.117-2.117-2.117zm-7.942 7.412c-3.211 0-5.823-2.612-5.823-5.824s2.613-5.824 5.823-5.824c3.211 0 5.824 2.612 5.824 5.824s-2.613 5.824-5.824 5.824z"
     id="path12" />
  <path
     fill="#65471B"
     d="M21.175 28.588c-.159 0-.321-.036-.473-.112-1.819-.91-3.587-.91-5.406 0-.524.261-1.16.05-1.421-.474-.262-.523-.05-1.159.474-1.421 2.421-1.21 4.877-1.21 7.3 0 .523.262.735.898.474 1.421-.185.372-.559.586-.948.586z"
     id="path14" />
  <path
     d="M28.049 9.411c-.912-.593-1.998-.94-3.167-.94-3.216 0-5.824 2.607-5.824 5.824 0 1.169.348 2.255.94 3.167l8.051-8.051zm-5.652 10.144c.755.357 1.595.563 2.485.563 3.216 0 5.824-2.607 5.824-5.824 0-.89-.206-1.731-.563-2.485l-7.746 7.746z"
     fill="#BDDDF4"
     id="path16" />
  <g
     id="g4546"
     transform="translate(0.70111435,0.75504622)">
    <path
       style="fill:none;stroke:#ff0000;stroke-width:1;stroke-linecap:round;stroke-linejoin:miter;stroke-miterlimit:4;stroke-dasharray:none;stroke-opacity:1"
       d="m 24.733513,13.671082 -2.701785,1.859046"
       id="path4539"
       inkscape:connector-curvature="0" />
    <path
       inkscape:connector-curvature="0"
       id="path4541"
       d="m 24.733513,13.671082 2.855127,1.613674"
       style="fill:none;stroke:#0000ff;stroke-width:1;stroke-linecap:round;stroke-linejoin:miter;stroke-miterlimit:4;stroke-dasharray:none;stroke-opacity:1" />
    <path
       sodipodi:nodetypes="cc"
       inkscape:connector-curvature="0"
       id="path4537"
       d="m 24.733513,10.144294 v 3.526788"
       style="fill:none;stroke:#00ff00;stroke-width:1px;stroke-linecap:round;stroke-linejoin:miter;stroke-opacity:1" />
  </g>
</svg>
